{"title":"Rugby Union - Scrum V Six Nations Special - 2015.02.01 - 720p x2","uid":11680882,"size":1026086504,"categoryP":"video","categoryS":"hd___tv_shows","magnet":"?xt=urn:btih:15128e1cee266b6d02a3d7547173405a9a29c3bd&amp;dn=Rugby+Union+-+Scrum+V+Six+Nations+Special+-+2015.02.01+-+720p+x2&amp;tr=udp%3A%2F%2Ftracker.openbittorrent.com%3A80&amp;tr=udp%3A%2F%2Fopen.demonii.com%3A1337&amp;tr=udp%3A%2F%2Ftracker.coppersurfer.tk%3A6969&amp;tr=udp%3A%2F%2Fexodus.desync.com%3A6969","seeders":1,"leechers":0,"uploader":"rugbybill","files":3,"time":1423081747,"description":"SPORT: Scrum V Six Nations Special\nOn: BBC 1 Wales     \nDate: Sunday 1st February 2015 \nTime: 18:00 to 19:00 \n\nJonathan Davies, Gwyn Jones and Jeremy Guscott provide a full preview of the 2015 Six Nations tournament. Plus in-depth analysis from Sean Holley as well as a mix of features, news and highlights.\n\n\nGeneral\nComplete name                            : 2015.02.01.Scrum.V.Six.Nations.Special.720p.x264.mp4\nFormat                                   : MPEG-4\nFormat profile                           : Base Media\nCodec ID                                 : isom\nFile size                                : 979 MiB\nDuration                                 : 57mn 4s\nOverall bit rate mode                    : Variable\nOverall bit rate                         : 2 397 Kbps\nWriting application                      : Lavf55.33.100\n\nVideo\nID                                       : 1\nFormat                                   : AVC\nFormat/Info                              : Advanced Video Codec\nFormat profile                           : &lt;a class=&quot;__cf_email__&quot; href=&quot;/cdn-cgi/l/email-protection&quot; data-cfemail=&quot;83cbeae4ebc3cfb7adb2&quot;&gt;[email&amp;#160;protected]&lt;/a&gt;&lt;script cf-hash='f9e31' type=&quot;text/javascript&quot;&gt;\n/* &lt;![CDATA[ */!function(){try{var t=&quot;currentScript&quot;in document?document.currentScript:function(){for(var t=document.getElementsByTagName(&quot;script&quot;),e=t.length;e--;)if(t[e].getAttribute(&quot;cf-hash&quot;))return t[e]}();if(t&amp;&amp;t.previousSibling){var e,r,n,i,c=t.previousSibling,a=c.getAttribute(&quot;data-cfemail&quot;);if(a){for(e=&quot;&quot;,r=parseInt(a.substr(0,2),16),n=2;a.length-n;n+=2)i=parseInt(a.substr(n,2),16)^r,e+=String.fromCharCode(i);e=document.createTextNode(e),c.parentNode.replaceChild(e,c)}}}catch(u){}}();/* ]]&gt; */&lt;/script&gt;\nFormat settings, CABAC                   : Yes\nFormat settings, ReFrames                : 2 frames\nCodec ID                                 : avc1\nCodec ID/Info                            : Advanced Video Coding\nDuration                                 : 57mn 4s\nBit rate mode                            : Variable\nBit rate                                 : 2 298 Kbps\nMaximum bit rate                         : 3 500 Kbps\nWidth                                    : 1 280 pixels\nHeight                                   : 720 pixels\nDisplay aspect ratio                     : 16:9\nFrame rate mode                          : Constant\nFrame rate                               : 25.000 fps\nColor space                              : YUV\nChroma subsampling                       : 4:2:0\nBit depth                                : 8 bits\nScan type                                : Progressive\nBits/(Pixel*Frame)                       : 0.100\nStream size                              : 938 MiB (96%)\n\nAudio\nID                                       : 2\nFormat                                   : AAC\nFormat/Info                              : Advanced Audio Codec\nFormat profile                           : LC\nCodec ID                                 : 40\nDuration                                 : 57mn 4s\nBit rate mode                            : Constant\nBit rate                                 : 93.5 Kbps\nChannel(s)                               : 2 channels\nChannel positions                        : Front: L R\nSampling rate                            : 48.0 KHz\nCompression mode                         : Lossy\nStream size                              : 38.2 MiB (4%)","torrent":{"xt":"urn:btih:15128e1cee266b6d02a3d7547173405a9a29c3bd","amp;dn":"Rugby+Union+-+Scrum+V+Six+Nations+Special+-+2015.02.01+-+720p+x2","amp;tr":["udp%3A%2F%2Ftracker.openbittorrent.com%3A80","udp%3A%2F%2Fopen.demonii.com%3A1337","udp%3A%2F%2Ftracker.coppersurfer.tk%3A6969","udp%3A%2F%2Fexodus.desync.com%3A6969"],"infoHash":"15128e1cee266b6d02a3d7547173405a9a29c3bd","infoHashBuffer":{"type":"Buffer","data":[21,18,142,28,238,38,107,109,2,163,215,84,113,115,64,90,154,41,195,189]},"announce":[],"urlList":[]}}